<svg width="311" height="408" viewBox="0 0 311 408" fill="none" xmlns="http://www.w3.org/2000/svg">
<path d="M215.385 53.0578C252.795 49.8236 311 62.8708 311 62.8708V12.0219C311 12.0219 252.902 1.88636 215.385 3.10107C187.514 4.00343 167.577 5.1826 144.669 12.0219C121.761 18.8612 94.7849 20.1383 68.9734 36.1082C39.3333 54.447 28.8017 80.7125 12.2018 101.23C12.2018 101.23 -2.45834 135.396 5.22983 155.648C12.5834 175.018 24.777 184.613 45.0696 194.007C62.9641 202.292 76.2722 197.847 95.8653 202.036C124.579 208.175 147.625 203.959 167.577 223.446C177.459 233.098 182.239 240.12 185.505 252.885C189.99 270.415 181.558 280.761 177.537 298.381C174.25 312.786 169.598 320.366 167.577 334.957C165.421 350.515 160.569 360.735 167.577 375.101C173.963 388.193 182.056 394.831 196.461 400.971C219.073 410.609 236.064 400.691 260.204 394.726C281.03 389.581 311 375.101 311 375.101V290.353C311 290.353 245.968 314.847 230.324 290.353C224.983 281.988 224.339 275.902 224.349 266.266C224.367 247.871 240.656 241.143 246.26 223.446C248.862 215.23 252.8 210.462 251.24 202.036C249.114 190.549 239.733 186.877 230.324 178.842C210.304 161.744 192.7 159.773 167.577 149.403C149.208 141.821 131.841 146.097 119.769 131.561C112.867 123.25 109.674 116.94 109.809 106.583C109.94 96.5529 112.782 90.3354 119.769 82.4967C128.35 72.8712 138.043 72.262 150.645 67.3312C174.505 57.9955 189.468 55.2984 215.385 53.0578Z" fill="#6D9773" fill-opacity="0.2" stroke="#FBFDF8" stroke-width="4.29677"/>
</svg>
