<svg width="228" height="333" viewBox="0 0 228 333" fill="none" xmlns="http://www.w3.org/2000/svg">
<path d="M70.1594 290.032C42.7087 292.679 0 282.001 0 282.001L0 323.616C0 323.616 42.6302 331.911 70.1594 330.917C90.6098 330.179 105.239 329.214 122.048 323.616C138.857 318.019 158.651 316.974 177.591 303.904C199.34 288.895 207.068 267.399 219.248 250.607C219.248 250.607 230.005 222.646 224.364 206.072C218.968 190.219 210.021 182.367 195.131 174.678C182 167.898 172.235 171.535 157.859 168.107C136.79 163.083 119.879 166.533 105.239 150.585C97.9879 142.686 94.4805 136.939 92.0842 126.492C88.7932 112.145 94.9803 103.678 97.9308 89.2576C100.343 77.4688 103.756 71.2648 105.239 59.3239C106.821 46.5913 110.381 38.2271 105.239 26.4699C100.553 15.7546 94.6144 10.322 84.0451 5.2973C67.4531 -2.59055 54.9854 5.52634 37.2722 10.4079C21.9908 14.6194 0 26.4699 0 26.4699L0 95.8284C0 95.8284 47.7184 75.7818 59.197 95.8284C63.1165 102.674 63.5891 107.655 63.5819 115.541C63.5682 130.595 51.616 136.102 47.5037 150.585C45.5944 157.31 42.7051 161.212 43.8496 168.107C45.4099 177.508 52.2933 180.514 59.197 187.09C73.8876 201.082 86.8045 202.696 105.239 211.183C118.718 217.388 131.461 213.889 140.319 225.784C145.383 232.586 147.726 237.75 147.627 246.227C147.531 254.436 145.446 259.524 140.319 265.939C134.023 273.817 126.91 274.315 117.663 278.351C100.156 285.991 89.1761 288.199 70.1594 290.032Z" fill="#6D9773" fill-opacity="0.2" stroke="#FBFDF8" stroke-width="2.56931"/>
</svg>
