<svg width="137" height="87" viewBox="0 0 137 87" fill="none" xmlns="http://www.w3.org/2000/svg">
<path d="M27.25 57.75V2.75" stroke="#BB8A52" stroke-width="4.125" stroke-linecap="round"/>
<path d="M43.75 52.25V8.25" stroke="#6D9773" stroke-width="4.125" stroke-linecap="round"/>
<path d="M60.25 54.3125V6.1875" stroke="#FFBA00" stroke-width="4.125" stroke-linecap="round"/>
<path d="M76.75 47.4375V13.0625" stroke="#6D9773" stroke-width="4.125" stroke-linecap="round"/>
<path d="M93.25 57.75V2.75" stroke="#BB8A52" stroke-width="4.125" stroke-linecap="round"/>
<path d="M109.75 55V5.5" stroke="#0C3E2E" stroke-width="4.125" stroke-linecap="round"/>
<path d="M5.93402 82.5181C5.02835 82.5181 4.23589 82.387 3.55664 82.1249C2.88335 81.8568 2.31731 81.5141 1.85852 81.0971C1.40568 80.674 1.05712 80.2301 0.812829 79.7654L2.65395 78.5141C2.79695 78.8418 3.0055 79.1576 3.27958 79.4615C3.55366 79.7594 3.91414 80.0067 4.36102 80.2033C4.80789 80.394 5.36202 80.4893 6.02339 80.4893C6.66093 80.4893 7.18229 80.394 7.58745 80.2033C7.99262 80.0126 8.29054 79.7624 8.4812 79.4526C8.67187 79.1427 8.7672 78.8061 8.7672 78.4426C8.7672 77.9898 8.64208 77.6412 8.39183 77.3969C8.14158 77.1467 7.81387 76.9739 7.4087 76.8786C7.00354 76.7773 6.57156 76.7207 6.11277 76.7088C5.69568 76.6968 5.39479 76.6879 5.21008 76.6819C5.02537 76.676 4.90322 76.673 4.84364 76.673C4.78406 76.673 4.72745 76.673 4.67383 76.673V74.6353C4.73937 74.6353 4.8496 74.6353 5.00452 74.6353C5.16539 74.6353 5.32925 74.6353 5.49608 74.6353C5.66887 74.6293 5.80889 74.6233 5.91614 74.6174C6.59539 74.5876 7.1525 74.4297 7.58745 74.1437C8.02837 73.8577 8.24883 73.4346 8.24883 72.8746C8.24883 72.3324 8.04327 71.9063 7.63214 71.5965C7.22697 71.2867 6.68775 71.1318 6.01445 71.1318C5.38287 71.1318 4.82577 71.2718 4.34314 71.5518C3.86647 71.8319 3.506 72.1625 3.2617 72.5439L1.75127 71.0066C2.18622 70.4763 2.7761 70.0295 3.52089 69.666C4.27164 69.2966 5.12368 69.1119 6.07702 69.1119C6.6371 69.1119 7.18229 69.1864 7.71258 69.3353C8.24287 69.4783 8.71954 69.6988 9.14258 69.9967C9.56562 70.2946 9.90227 70.6759 10.1525 71.1407C10.4028 71.6054 10.5279 72.1596 10.5279 72.8031C10.5279 73.3929 10.4147 73.9381 10.1883 74.4386C9.96781 74.9332 9.65797 75.3383 9.25877 75.6541C9.82481 75.8805 10.2627 76.2261 10.5726 76.6909C10.8884 77.1556 11.0463 77.7425 11.0463 78.4516C11.0463 79.2857 10.8198 80.0067 10.367 80.6144C9.91418 81.2222 9.30047 81.6929 8.52589 82.0266C7.75727 82.3543 6.89331 82.5181 5.93402 82.5181ZM17.3725 82.5181C16.3953 82.5181 15.5373 82.3066 14.7985 81.8836C14.0596 81.4605 13.4817 80.8736 13.0646 80.1229C12.6535 79.3721 12.4479 78.5082 12.4479 77.531C12.4479 76.4764 12.6505 75.5618 13.0557 74.7872C13.4608 74.0066 14.0239 73.4019 14.7449 72.9729C15.4658 72.5439 16.3 72.3294 17.2474 72.3294C18.2484 72.3294 19.0974 72.5647 19.7945 73.0354C20.4976 73.5002 21.019 74.1586 21.3586 75.0106C21.6982 75.8627 21.8263 76.8666 21.7429 78.0226H19.6069V77.2361C19.6009 76.1874 19.4162 75.4218 19.0527 74.9391C18.6893 74.4565 18.1173 74.2152 17.3367 74.2152C16.4549 74.2152 15.7995 74.4893 15.3705 75.0374C14.9415 75.5796 14.727 76.3751 14.727 77.4238C14.727 78.4009 14.9415 79.1576 15.3705 79.6939C15.7995 80.2301 16.4251 80.4983 17.2474 80.4983C17.7776 80.4983 18.2335 80.3821 18.6148 80.1497C19.0021 79.9114 19.3 79.5688 19.5085 79.1219L21.6357 79.7654C21.2662 80.6353 20.6942 81.3116 19.9197 81.7942C19.151 82.2768 18.302 82.5181 17.3725 82.5181ZM14.0477 78.0226V76.3959H20.6883V78.0226H14.0477ZM22.8433 82.25V80.4446C23.1949 80.5102 23.466 80.5042 23.6567 80.4268C23.8473 80.3433 23.9903 80.1884 24.0857 79.962C24.181 79.7356 24.2644 79.4347 24.3359 79.0593C24.4312 78.529 24.5147 77.9183 24.5862 77.2271C24.6636 76.536 24.7292 75.7971 24.7828 75.0106C24.8424 74.2241 24.896 73.4198 24.9437 72.5975H32.049V82.25H29.904V74.6174H26.8384C26.8086 75.0047 26.7729 75.4396 26.7312 75.9223C26.6894 76.3989 26.6448 76.8815 26.5971 77.3701C26.5494 77.8587 26.4958 78.3235 26.4362 78.7644C26.3826 79.1993 26.326 79.5717 26.2664 79.8816C26.1294 80.5787 25.9327 81.1298 25.6765 81.535C25.4263 81.9402 25.0747 82.1994 24.6219 82.3126C24.1691 82.4317 23.5762 82.4109 22.8433 82.25ZM38.9482 82.5181C37.971 82.5181 37.113 82.3066 36.3742 81.8836C35.6353 81.4605 35.0574 80.8736 34.6403 80.1229C34.2292 79.3721 34.0236 78.5082 34.0236 77.531C34.0236 76.4764 34.2262 75.5618 34.6313 74.7872C35.0365 74.0066 35.5996 73.4019 36.3205 72.9729C37.0415 72.5439 37.8757 72.3294 38.823 72.3294C39.824 72.3294 40.6731 72.5647 41.3702 73.0354C42.0733 73.5002 42.5947 74.1586 42.9343 75.0106C43.2739 75.8627 43.402 76.8666 43.3186 78.0226H41.1825V77.2361C41.1766 76.1874 40.9919 75.4218 40.6284 74.9391C40.265 74.4565 39.693 74.2152 38.9124 74.2152C38.0306 74.2152 37.3752 74.4893 36.9462 75.0374C36.5172 75.5796 36.3027 76.3751 36.3027 77.4238C36.3027 78.4009 36.5172 79.1576 36.9462 79.6939C37.3752 80.2301 38.0008 80.4983 38.823 80.4983C39.3533 80.4983 39.8091 80.3821 40.1905 80.1497C40.5778 79.9114 40.8757 79.5688 41.0842 79.1219L43.2113 79.7654C42.8419 80.6353 42.2699 81.3116 41.4953 81.7942C40.7267 82.2768 39.8777 82.5181 38.9482 82.5181ZM35.6234 78.0226V76.3959H42.264V78.0226H35.6234ZM45.2949 82.25V72.5975H47.4488V76.4049H51.7835V72.5975H53.9375V82.25H51.7835V78.4248H47.4488V82.25H45.2949ZM59.1314 82.5181C58.4343 82.5181 57.8444 82.387 57.3618 82.1249C56.8792 81.8568 56.5127 81.5022 56.2625 81.0613C56.0182 80.6204 55.896 80.1348 55.896 79.6045C55.896 79.1398 55.9735 78.7227 56.1284 78.3533C56.2833 77.9779 56.5217 77.6561 56.8434 77.388C57.1652 77.1139 57.5822 76.8905 58.0947 76.7177C58.482 76.5926 58.9348 76.4794 59.4532 76.3781C59.9775 76.2768 60.5435 76.1844 61.1513 76.101C61.765 76.0116 62.4055 75.9163 63.0728 75.815L62.3042 76.2529C62.3102 75.5856 62.1612 75.094 61.8573 74.7783C61.5535 74.4625 61.0411 74.3046 60.3201 74.3046C59.8851 74.3046 59.4651 74.4059 59.0599 74.6084C58.6547 74.811 58.3717 75.1596 58.2108 75.6541L56.2446 75.0374C56.4829 74.2211 56.9358 73.5657 57.6031 73.0712C58.2764 72.5766 59.1821 72.3294 60.3201 72.3294C61.1781 72.3294 61.9318 72.4694 62.5813 72.7494C63.2367 73.0295 63.7223 73.4883 64.0381 74.1258C64.2109 74.4654 64.3152 74.814 64.3509 75.1715C64.3867 75.523 64.4045 75.9074 64.4045 76.3244V82.25H62.5187V80.1586L62.8315 80.4983C62.3966 81.1954 61.8871 81.7078 61.3032 82.0355C60.7253 82.3572 60.0013 82.5181 59.1314 82.5181ZM59.5604 80.8021C60.049 80.8021 60.4661 80.7157 60.8117 80.5429C61.1572 80.3701 61.4313 80.1586 61.6339 79.9084C61.8425 79.6581 61.9825 79.4228 62.054 79.2023C62.1672 78.9282 62.2297 78.6154 62.2417 78.2639C62.2595 77.9064 62.2685 77.6174 62.2685 77.3969L62.9298 77.5936C62.2804 77.6949 61.7233 77.7842 61.2585 77.8617C60.7938 77.9391 60.3946 78.0136 60.0609 78.0851C59.7272 78.1507 59.4323 78.2251 59.1761 78.3086C58.9258 78.3979 58.7143 78.5022 58.5415 78.6214C58.3687 78.7405 58.2347 78.8776 58.1393 79.0325C58.05 79.1874 58.0053 79.3691 58.0053 79.5777C58.0053 79.816 58.0649 80.0275 58.184 80.2123C58.3032 80.391 58.476 80.534 58.7024 80.6413C58.9348 80.7485 59.2208 80.8021 59.5604 80.8021ZM70.292 82.25V72.5975H78.6753V82.25H76.5214V74.6174H72.4459V82.25H70.292ZM83.8841 82.5181C83.187 82.5181 82.5971 82.387 82.1145 82.1249C81.6318 81.8568 81.2654 81.5022 81.0152 81.0613C80.7709 80.6204 80.6487 80.1348 80.6487 79.6045C80.6487 79.1398 80.7262 78.7227 80.8811 78.3533C81.036 77.9779 81.2743 77.6561 81.5961 77.388C81.9178 77.1139 82.3349 76.8905 82.8473 76.7177C83.2346 76.5926 83.6875 76.4794 84.2058 76.3781C84.7302 76.2768 85.2962 76.1844 85.904 76.101C86.5177 76.0116 87.1582 75.9163 87.8255 75.815L87.0569 76.2529C87.0629 75.5856 86.9139 75.094 86.61 74.7783C86.3062 74.4625 85.7937 74.3046 85.0728 74.3046C84.6378 74.3046 84.2178 74.4059 83.8126 74.6084C83.4074 74.811 83.1244 75.1596 82.9635 75.6541L80.9973 75.0374C81.2356 74.2211 81.6884 73.5657 82.3558 73.0712C83.0291 72.5766 83.9347 72.3294 85.0728 72.3294C85.9308 72.3294 86.6845 72.4694 87.334 72.7494C87.9894 73.0295 88.475 73.4883 88.7908 74.1258C88.9636 74.4654 89.0678 74.814 89.1036 75.1715C89.1393 75.523 89.1572 75.9074 89.1572 76.3244V82.25H87.2714V80.1586L87.5842 80.4983C87.1493 81.1954 86.6398 81.7078 86.0559 82.0355C85.4779 82.3572 84.754 82.5181 83.8841 82.5181ZM84.3131 80.8021C84.8017 80.8021 85.2188 80.7157 85.5643 80.5429C85.9099 80.3701 86.184 80.1586 86.3866 79.9084C86.5951 79.6581 86.7352 79.4228 86.8067 79.2023C86.9199 78.9282 86.9824 78.6154 86.9943 78.2639C87.0122 77.9064 87.0212 77.6174 87.0212 77.3969L87.6825 77.5936C87.0331 77.6949 86.476 77.7842 86.0112 77.8617C85.5465 77.9391 85.1473 78.0136 84.8136 78.0851C84.4799 78.1507 84.185 78.2251 83.9288 78.3086C83.6785 78.3979 83.467 78.5022 83.2942 78.6214C83.1214 78.7405 82.9874 78.8776 82.892 79.0325C82.8027 79.1874 82.758 79.3691 82.758 79.5777C82.758 79.816 82.8175 80.0275 82.9367 80.2123C83.0559 80.391 83.2287 80.534 83.4551 80.6413C83.6875 80.7485 83.9735 80.8021 84.3131 80.8021ZM90.5903 82.25V80.4446C90.9418 80.5102 91.2129 80.5042 91.4036 80.4268C91.5943 80.3433 91.7373 80.1884 91.8326 79.962C91.9279 79.7356 92.0114 79.4347 92.0829 79.0593C92.1782 78.529 92.2616 77.9183 92.3331 77.2271C92.4106 76.536 92.4761 75.7971 92.5297 75.0106C92.5893 74.2241 92.6429 73.4198 92.6906 72.5975H99.7959V82.25H97.6509V74.6174H94.5854C94.5556 75.0047 94.5198 75.4396 94.4781 75.9223C94.4364 76.3989 94.3917 76.8815 94.344 77.3701C94.2964 77.8587 94.2427 78.3235 94.1832 78.7644C94.1295 79.1993 94.0729 79.5717 94.0134 79.8816C93.8763 80.5787 93.6797 81.1298 93.4235 81.535C93.1732 81.9402 92.8217 82.1994 92.3689 82.3126C91.916 82.4317 91.3232 82.4109 90.5903 82.25ZM102.486 71.1318V69.1566H104.639V71.1318H102.486ZM102.486 82.25V72.5975H104.639V82.25H102.486ZM109.739 82.25V74.5101H106.512V72.5975H115.119V74.5101H111.893V82.25H109.739ZM121.451 82.5181C120.51 82.5181 119.72 82.2947 119.083 81.8478C118.445 81.4009 117.966 80.7932 117.644 80.0246C117.322 79.25 117.161 78.383 117.161 77.4238C117.161 76.4525 117.322 75.5826 117.644 74.814C117.966 74.0454 118.436 73.4406 119.056 72.9997C119.682 72.5528 120.453 72.3294 121.371 72.3294C122.283 72.3294 123.072 72.5528 123.739 72.9997C124.413 73.4406 124.934 74.0454 125.303 74.814C125.673 75.5767 125.858 76.4466 125.858 77.4238C125.858 78.389 125.676 79.2559 125.312 80.0246C124.949 80.7932 124.436 81.4009 123.775 81.8478C123.114 82.2947 122.339 82.5181 121.451 82.5181ZM116.795 86.54V72.5975H118.699V79.3721H118.967V86.54H116.795ZM121.121 80.5876C121.681 80.5876 122.143 80.4476 122.506 80.1676C122.869 79.8875 123.138 79.5092 123.31 79.0325C123.489 78.5499 123.578 78.0136 123.578 77.4238C123.578 76.8398 123.489 76.3095 123.31 75.8329C123.132 75.3503 122.855 74.9689 122.479 74.6889C122.104 74.4029 121.627 74.2599 121.049 74.2599C120.501 74.2599 120.054 74.3939 119.709 74.6621C119.363 74.9242 119.107 75.2936 118.94 75.7703C118.779 76.241 118.699 76.7922 118.699 77.4238C118.699 78.0494 118.779 78.6005 118.94 79.0772C119.107 79.5539 119.366 79.9263 119.717 80.1944C120.075 80.4565 120.543 80.5876 121.121 80.5876ZM130.527 82.5181C129.83 82.5181 129.24 82.387 128.757 82.1249C128.274 81.8568 127.908 81.5022 127.658 81.0613C127.413 80.6204 127.291 80.1348 127.291 79.6045C127.291 79.1398 127.369 78.7227 127.524 78.3533C127.679 77.9779 127.917 77.6561 128.239 77.388C128.56 77.1139 128.977 76.8905 129.49 76.7177C129.877 76.5926 130.33 76.4794 130.848 76.3781C131.373 76.2768 131.939 76.1844 132.547 76.101C133.16 76.0116 133.801 75.9163 134.468 75.815L133.699 76.2529C133.705 75.5856 133.556 75.094 133.253 74.7783C132.949 74.4625 132.436 74.3046 131.715 74.3046C131.28 74.3046 130.86 74.4059 130.455 74.6084C130.05 74.811 129.767 75.1596 129.606 75.6541L127.64 75.0374C127.878 74.2211 128.331 73.5657 128.998 73.0712C129.672 72.5766 130.577 72.3294 131.715 72.3294C132.573 72.3294 133.327 72.4694 133.977 72.7494C134.632 73.0295 135.118 73.4883 135.433 74.1258C135.606 74.4654 135.71 74.814 135.746 75.1715C135.782 75.523 135.8 75.9074 135.8 76.3244V82.25H133.914V80.1586L134.227 80.4983C133.792 81.1954 133.282 81.7078 132.698 82.0355C132.121 82.3572 131.397 82.5181 130.527 82.5181ZM130.956 80.8021C131.444 80.8021 131.861 80.7157 132.207 80.5429C132.552 80.3701 132.827 80.1586 133.029 79.9084C133.238 79.6581 133.378 79.4228 133.449 79.2023C133.562 78.9282 133.625 78.6154 133.637 78.2639C133.655 77.9064 133.664 77.6174 133.664 77.3969L134.325 77.5936C133.676 77.6949 133.119 77.7842 132.654 77.8617C132.189 77.9391 131.79 78.0136 131.456 78.0851C131.122 78.1507 130.828 78.2251 130.571 78.3086C130.321 78.3979 130.11 78.5022 129.937 78.6214C129.764 78.7405 129.63 78.8776 129.535 79.0325C129.445 79.1874 129.401 79.3691 129.401 79.5777C129.401 79.816 129.46 80.0275 129.579 80.2123C129.698 80.391 129.871 80.534 130.098 80.6413C130.33 80.7485 130.616 80.8021 130.956 80.8021Z" fill="#0C3E2E"/>
</svg>
