<svg width="20" height="20" viewBox="0 0 20 20" fill="none" xmlns="http://www.w3.org/2000/svg">
<path d="M11.0276 0.0012304C11.7573 -0.00156983 12.4871 0.00576429 13.2166 0.0232305L13.4106 0.0302304C13.6346 0.0382304 13.8556 0.0482304 14.1226 0.0602304C15.1866 0.11023 15.9126 0.278231 16.5496 0.525231C17.2096 0.779231 17.7656 1.12323 18.3216 1.67923C18.83 2.17884 19.2234 2.78318 19.4746 3.45023C19.7216 4.08723 19.8896 4.81423 19.9396 5.87823C19.9516 6.14423 19.9616 6.36623 19.9696 6.59023L19.9756 6.78423C19.9934 7.51342 20.001 8.24283 19.9986 8.97223L19.9996 9.71823V11.0282C20.0021 11.758 19.9944 12.4877 19.9766 13.2172L19.9706 13.4112C19.9626 13.6352 19.9526 13.8562 19.9406 14.1232C19.8906 15.1872 19.7206 15.9132 19.4746 16.5502C19.2242 17.218 18.8307 17.8228 18.3216 18.3222C17.8216 18.8306 17.2169 19.224 16.5496 19.4752C15.9126 19.7222 15.1866 19.8902 14.1226 19.9402C13.8556 19.9522 13.6346 19.9622 13.4106 19.9702L13.2166 19.9762C12.4871 19.994 11.7573 20.0017 11.0276 19.9992L10.2816 20.0002H8.9726C8.24286 20.0027 7.51313 19.995 6.7836 19.9772L6.5896 19.9712C6.35221 19.9626 6.11487 19.9526 5.8776 19.9412C4.8136 19.8912 4.0876 19.7212 3.4496 19.4752C2.78228 19.2246 2.17784 18.8311 1.6786 18.3222C1.16965 17.8225 0.775825 17.2178 0.524601 16.5502C0.277601 15.9132 0.1096 15.1872 0.0596004 14.1232C0.0484633 13.8859 0.0384632 13.6486 0.0296004 13.4112L0.0246005 13.2172C0.00616412 12.4877 -0.00217011 11.758 -0.000399562 11.0282V8.97223C-0.00319053 8.24283 0.00414359 7.51343 0.0216005 6.78423L0.0286005 6.59023C0.0366005 6.36623 0.0466005 6.14423 0.0586005 5.87823C0.1086 4.81323 0.2766 4.08823 0.5236 3.45023C0.774973 2.78285 1.16956 2.17868 1.6796 1.68023C2.17849 1.17098 2.78256 0.776803 3.4496 0.525231C4.0876 0.278231 4.8126 0.11023 5.8776 0.0602304L6.5896 0.0302304L6.7836 0.0252306C7.51278 0.00680338 8.24219 -0.00153085 8.9716 0.000230468L11.0276 0.0012304ZM9.9996 5.00123C9.33711 4.99186 8.67936 5.11425 8.06458 5.3613C7.4498 5.60834 6.89025 5.97511 6.41845 6.44029C5.94664 6.90546 5.572 7.45977 5.31629 8.07099C5.06057 8.68222 4.92889 9.33817 4.92889 10.0007C4.92889 10.6633 5.06057 11.3192 5.31629 11.9305C5.572 12.5417 5.94664 13.096 6.41845 13.5612C6.89025 14.0264 7.4498 14.3931 8.06458 14.6402C8.67936 14.8872 9.33711 15.0096 9.9996 15.0002C11.3257 15.0002 12.5975 14.4734 13.5351 13.5358C14.4728 12.5981 14.9996 11.3263 14.9996 10.0002C14.9996 8.67415 14.4728 7.40238 13.5351 6.4647C12.5975 5.52701 11.3257 5.00123 9.9996 5.00123ZM9.9996 7.00123C10.3981 6.99389 10.7941 7.06603 11.1644 7.21344C11.5347 7.36085 11.8719 7.58057 12.1564 7.85978C12.4408 8.13898 12.6668 8.47206 12.821 8.83957C12.9753 9.20708 13.0548 9.60165 13.0549 10.0002C13.0549 10.3988 12.9756 10.7934 12.8214 11.1609C12.6673 11.5285 12.4414 11.8617 12.1571 12.141C11.8727 12.4203 11.5356 12.6401 11.1653 12.7876C10.7951 12.9352 10.3991 13.0074 10.0006 13.0002C9.20495 13.0002 8.44189 12.6842 7.87928 12.1216C7.31667 11.5589 7.0006 10.7959 7.0006 10.0002C7.0006 9.20458 7.31667 8.44152 7.87928 7.87891C8.44189 7.3163 9.20495 7.00023 10.0006 7.00023L9.9996 7.00123ZM15.2496 3.50123C14.927 3.51414 14.6219 3.65138 14.3982 3.8842C14.1745 4.11702 14.0496 4.42736 14.0496 4.75023C14.0496 5.0731 14.1745 5.38344 14.3982 5.61626C14.6219 5.84908 14.927 5.98632 15.2496 5.99923C15.5811 5.99923 15.8991 5.86753 16.1335 5.63311C16.3679 5.39869 16.4996 5.08075 16.4996 4.74923C16.4996 4.41771 16.3679 4.09977 16.1335 3.86535C15.8991 3.63093 15.5811 3.49923 15.2496 3.49923V3.50123Z" fill="#BB8A52"/>
</svg>
