<svg width="52" height="49" viewBox="0 0 52 49" fill="none" xmlns="http://www.w3.org/2000/svg">
<path d="M25.8047 4.00415C13.7519 4.00415 3.96997 13.1978 3.96997 24.5258C3.96997 35.8537 13.7519 45.0474 25.8047 45.0474C37.8574 45.0474 47.6394 35.8537 47.6394 24.5258C47.6394 13.1978 37.8574 4.00415 25.8047 4.00415ZM35.936 17.9589C35.6085 21.2013 34.1892 29.0816 33.4687 32.7139C33.163 34.253 32.5516 34.7661 31.9839 34.8276C30.7175 34.9302 29.7568 34.0478 28.534 33.2885C26.6126 32.0982 25.5208 31.3595 23.6649 30.2103C21.5032 28.8764 22.9007 28.1376 24.1452 26.9473C24.4728 26.6395 30.0624 21.858 30.1716 21.427C30.1868 21.3617 30.1848 21.294 30.1657 21.2296C30.1467 21.1652 30.1113 21.1062 30.0624 21.0576C29.9314 20.955 29.7568 20.9961 29.6039 21.0166C29.4074 21.0576 26.3505 22.9661 20.3897 26.7421C19.5163 27.2962 18.7302 27.5835 18.0315 27.563C17.2455 27.5424 15.7607 27.1525 14.6471 26.8037C13.2716 26.3932 12.2017 26.1675 12.289 25.4492C12.3327 25.0799 12.8785 24.7105 13.9048 24.3206C20.2805 21.7143 24.5164 19.9905 26.6344 19.1696C32.7044 16.7891 33.949 16.3787 34.7787 16.3787C34.9534 16.3787 35.3683 16.4197 35.6303 16.6249C35.8486 16.7891 35.9141 17.0149 35.936 17.179C35.9141 17.3022 35.9578 17.6715 35.936 17.9589Z" fill="#2697BE"/>
</svg>
